# xmcd CD database file
#
# Track frame offsets:
#	150
#	12496
#	27251
#	39174
#	51769
#	63938
#	75957
#	89258
#	100879
#	112647
#	126040
#	138693
#	150341
#	163157
#	177446
#	188356
#	201711
#	213695
#	225768
#	239798
#	253470
#	267969
#	281311
#
# Disc length: 3931 seconds
#
# Revision: 6
# Processed by: cddbd v1.5.2PL0 Copyright (c) Steve Scherf et al.
# Submitted via: CDex 1.51
#
DISCID=370f5917
DTITLE=Nat King Cole - Vol.08 - Little Girl
DYEAR=2005
DGENRE=Jazz
TTITLE0=My Sleepy Head
TTITLE1=Brahm's Lullaby
TTITLE2=Nature Boy
TTITLE3=Nursery Rhymes
TTITLE4=Old MacDonald Had A Farm
TTITLE5=The Three Trees
TTITLE6=Laguna Mood
TTITLE7=Now He Tells Me
TTITLE8=That's A Natural Fact
TTITLE9=Lament In Chords
TTITLE10=Those Things Money Can't Buy
TTITLE11=Love Nest
TTITLE12=Dream A Little Dream Of Me
TTITLE13=Then I'll Be Tires Of You
TTITLE14=Little Girl
TTITLE15=No Moon At All
TTITLE16=I Feel So Smoochie
TTITLE17=A Boy From Texas  - A Girl From Tennessee
TTITLE18=It's The Sentimental Thing To Do
TTITLE19=I've Only Myself To Blame
TTITLE20=The Geek
TTITLE21=Confess
TTITLE22=If I Had You
EXTD=
EXTT0=
EXTT1=
EXTT2=
EXTT3=
EXTT4=
EXTT5=
EXTT6=
EXTT7=
EXTT8=
EXTT9=
EXTT10=
EXTT11=
EXTT12=
EXTT13=
EXTT14=
EXTT15=
EXTT16=
EXTT17=
EXTT18=
EXTT19=
EXTT20=
EXTT21=
EXTT22=
PLAYORDER=
